<?xml version="1.0" encoding="UTF-8"?>
<svg id="_图层_1" data-name="图层_1" xmlns="http://www.w3.org/2000/svg" version="1.1" viewBox="0 0 200 200">
  <!-- Generator: Adobe Illustrator 30.0.0, SVG Export Plug-In . SVG Version: 2.1.1 Build 123)  -->
  <defs>
    <style>
      .st0 {
        fill: #004681;
      }
    </style>
  </defs>
  <path class="st0" d="M162.35,98.7c.26.99.58,2.05.96,3.17l.77,2.98c.26.99.38,1.8.38,2.42,0,3.48-.96,6.55-2.88,9.22-1.92,2.67-4.41,4.63-7.48,5.87-1.15.12-2.37.19-3.65.19-1.02.12-2.17.19-3.45.19h-3.65l-29.93.37v31.1c0,4.59.1,9.22.29,13.88.19,4.66.42,8.85.67,12.57.26,4.47.58,8.75.96,12.85h-27.63l.58-7.26c.13-2.86.26-6.74.38-11.64.13-4.9.19-11.45.19-19.65v-28.5c-2.17,1.86-4.6,2.79-7.29,2.79-2.17,0-4.06-.5-5.66-1.49s-2.91-2.36-3.93-4.1l-21.68-1.12c-4.22-.99-7.74-3.07-10.55-6.24-2.81-3.17-4.22-6.92-4.22-11.27,0-.75.06-1.43.19-2.05s.32-1.24.58-1.86l4.8-10.8c.26-2.73,1.06-5.28,2.4-7.64,1.34-2.36,3.04-4.41,5.08-6.15l30.12-54.2h.19c2.43-4.35,5.31-8.07,8.63-11.18,3.33-3.1,7.61-4.66,12.85-4.66,4.6,0,8.73,1.18,12.37,3.54s6.36,5.46,8.15,9.31l24.17,46c4.35,1.49,7.93,4.1,10.74,7.82,2.81,3.73,4.22,8.01,4.22,12.85,0,1.99-.32,4.1-.96,6.33l3.26,6.33Z"/>
</svg>